<?xml version="1.0" encoding="iso-8859-1"?>
<!-- Generator: Adobe Illustrator 19.0.0, SVG Export Plug-In . SVG Version: 6.00 Build 0)  -->
<svg version="1.1" id="Capa_1" xmlns="http://www.w3.org/2000/svg" xmlns:xlink="http://www.w3.org/1999/xlink" x="0px" y="0px"
	 viewBox="0 0 480 480" style="enable-background:new 0 0 480 480;" xml:space="preserve">
<g>
	<g>
		<rect x="64" y="32" width="16" height="16"/>
	</g>
</g>
<g>
	<g>
		<rect x="96" y="32" width="16" height="16"/>
	</g>
</g>
<g>
	<g>
		<rect x="32" y="32" width="16" height="16"/>
	</g>
</g>
<g>
	<g>
		<path d="M448,0H32C14.327,0,0,14.327,0,32v416c0,17.673,14.327,32,32,32h416c17.673,0,32-14.327,32-32V32
			C480,14.327,465.673,0,448,0z M464,448c0,8.837-7.163,16-16,16H32c-8.837,0-16-7.163-16-16V80h448V448z M464,64H16V32
			c0-8.837,7.163-16,16-16h416c8.837,0,16,7.163,16,16V64z"/>
	</g>
</g>
<g>
	<g>
		<path d="M400,240h-27.864c-3.277-13.709-8.692-26.816-16.048-38.84l19.68-19.672c3.123-3.124,3.123-8.188,0-11.312l-33.944-33.944
			c-3.174-3.001-8.138-3.001-11.312,0l-19.672,19.68c-12.024-7.356-25.131-12.771-38.84-16.048V112c0-4.418-3.582-8-8-8h-48
			c-4.418,0-8,3.582-8,8v27.864c-13.709,3.277-26.816,8.692-38.84,16.048l-19.672-19.68c-3.124-3.123-8.188-3.123-11.312,0
			l-33.944,33.944c-3.123,3.124-3.123,8.188,0,11.312l19.68,19.672c-7.356,12.024-12.771,25.131-16.048,38.84H80
			c-4.418,0-8,3.582-8,8v48c0,4.418,3.582,8,8,8h27.864c3.277,13.709,8.692,26.816,16.048,38.84l-19.68,19.672
			c-3.123,3.124-3.123,8.188,0,11.312l33.944,33.944c3.174,3.001,8.138,3.001,11.312,0l19.672-19.68
			c12.024,7.356,25.131,12.771,38.84,16.048V432c0,4.418,3.582,8,8,8h48c4.418,0,8-3.582,8-8v-27.864
			c13.709-3.277,26.816-8.692,38.84-16.048l19.672,19.68c3.124,3.123,8.188,3.123,11.312,0l33.944-33.944
			c3.123-3.124,3.123-8.188,0-11.312l-19.68-19.672c7.356-12.024,12.771-25.131,16.048-38.84H400c4.418,0,8-3.582,8-8v-48
			C408,243.582,404.418,240,400,240z M392,288h-26.328c-3.84,0.001-7.138,2.731-7.856,6.504
			c-3.023,16.095-9.342,31.392-18.56,44.928c-2.16,3.174-1.76,7.435,0.952,10.152l18.592,18.584L336.168,390.8L317.6,372.208
			c-2.717-2.712-6.978-3.112-10.152-0.952c-13.536,9.218-28.833,15.537-44.928,18.56c-3.773,0.718-6.503,4.016-6.504,7.856V424H224
			v-26.328c-0.001-3.84-2.731-7.138-6.504-7.856c-16.095-3.023-31.392-9.342-44.928-18.56c-3.174-2.16-7.435-1.76-10.152,0.952
			L143.832,390.8L121.2,368.168l18.592-18.568c2.712-2.717,3.112-6.978,0.952-10.152c-9.218-13.536-15.537-28.833-18.56-44.928
			c-0.711-3.779-4.011-6.517-7.856-6.52H88v-32h26.328c3.84-0.001,7.138-2.731,7.856-6.504c3.023-16.095,9.342-31.392,18.56-44.928
			c2.16-3.174,1.76-7.435-0.952-10.152L121.2,175.832l22.632-22.632l18.568,18.592c2.717,2.712,6.978,3.112,10.152,0.952
			c13.536-9.218,28.833-15.537,44.928-18.56c3.779-0.711,6.517-4.011,6.52-7.856V120h32v26.328c0.001,3.84,2.731,7.138,6.504,7.856
			c16.095,3.023,31.392,9.342,44.928,18.56c3.174,2.16,7.435,1.76,10.152-0.952l18.584-18.592l22.632,22.632L340.208,194.4
			c-2.712,2.717-3.112,6.978-0.952,10.152c9.218,13.536,15.537,28.833,18.56,44.928c0.718,3.773,4.016,6.503,7.856,6.504H392V288z"
			/>
	</g>
</g>
<g>
	<g>
		<path d="M240,168c-57.438,0-104,46.562-104,104s46.562,104,104,104s104-46.562,104-104C343.934,214.59,297.41,168.066,240,168z
			 M240,360c-48.601,0-88-39.399-88-88c0-48.601,39.399-88,88-88s88,39.399,88,88C327.943,320.577,288.577,359.943,240,360z"/>
	</g>
</g>
<g>
	<g>
		<path d="M212.8,254.4l-9.6-12.8l-32,24c-3.535,2.651-4.251,7.665-1.6,11.2c0.455,0.606,0.994,1.145,1.6,1.6l32,24l9.6-12.8
			L189.336,272L212.8,254.4z"/>
	</g>
</g>
<g>
	<g>
		<path d="M310.4,267.2c-0.455-0.606-0.994-1.145-1.6-1.6l-32-24l-9.6,12.8l23.464,17.6L267.2,289.6l9.6,12.8l32-24
			C312.335,275.749,313.051,270.735,310.4,267.2z"/>
	</g>
</g>
<g>
	<g>
		<rect x="196.922" y="264.026" transform="matrix(0.3715 -0.9284 0.9284 0.3715 -101.7139 393.8008)" width="86.16" height="16"/>
	</g>
</g>
<g>
</g>
<g>
</g>
<g>
</g>
<g>
</g>
<g>
</g>
<g>
</g>
<g>
</g>
<g>
</g>
<g>
</g>
<g>
</g>
<g>
</g>
<g>
</g>
<g>
</g>
<g>
</g>
<g>
</g>
</svg>
